<mxfile host="app.diagrams.net" modified="2023-07-01T09:00:47.826Z" agent="Mozilla/5.0 (Macintosh; Intel Mac OS X 10_15_7) AppleWebKit/605.1.15 (KHTML, like Gecko) Version/15.6.1 Safari/605.1.15" version="21.3.8" etag="66HZ5MV038kKi-FnaGf3" type="github">
  <diagram name="Page-1" id="ahk14qOgWb5BnK4jDoPu">
    <mxGraphModel>
      <root>
        <mxCell id="0" />
        <mxCell id="1" parent="0" />
      </root>
    </mxGraphModel>
  </diagram>
</mxfile>
